<mxfile host="app.diagrams.net" modified="2023-11-12T05:12:48.233Z" agent="Mozilla/5.0 (Macintosh; Intel Mac OS X 10_15_7) AppleWebKit/537.36 (KHTML, like Gecko) Chrome/118.0.0.0 Safari/537.36" etag="WDUA-EYKDGB63WNE6HZR" version="22.1.0" type="github">
  <diagram name="페이지-1" id="gzIfh3yVIoSz5s-9WZid">
    <mxGraphModel dx="945" dy="1168" grid="1" gridSize="10" guides="1" tooltips="1" connect="1" arrows="1" fold="1" page="1" pageScale="1" pageWidth="827" pageHeight="1169" math="0" shadow="0">
      <root>
        <mxCell id="0" />
        <mxCell id="1" parent="0" />
        <mxCell id="7C5Wq7yI61Qbkwt6JrYx-1" value="Actor" style="shape=umlActor;verticalLabelPosition=bottom;verticalAlign=top;html=1;" vertex="1" parent="1">
          <mxGeometry x="150" y="350" width="30" height="60" as="geometry" />
        </mxCell>
        <mxCell id="7C5Wq7yI61Qbkwt6JrYx-3" value="게시판 서비스" style="shape=umlFrame;whiteSpace=wrap;html=1;pointerEvents=0;width=100;height=30;" vertex="1" parent="1">
          <mxGeometry x="220" y="50" width="650" height="570" as="geometry" />
        </mxCell>
        <mxCell id="7C5Wq7yI61Qbkwt6JrYx-5" value="회원 가입" style="rounded=1;whiteSpace=wrap;html=1;arcSize=40;fontColor=#000000;fillColor=#ffffc0;strokeColor=#ff0000;" vertex="1" parent="1">
          <mxGeometry x="270" y="170" width="120" height="40" as="geometry" />
        </mxCell>
        <mxCell id="7C5Wq7yI61Qbkwt6JrYx-25" style="rounded=0;orthogonalLoop=1;jettySize=auto;html=1;exitX=1;exitY=0.5;exitDx=0;exitDy=0;entryX=0.5;entryY=1;entryDx=0;entryDy=0;dashed=1;" edge="1" parent="1" source="7C5Wq7yI61Qbkwt6JrYx-7" target="7C5Wq7yI61Qbkwt6JrYx-10">
          <mxGeometry relative="1" as="geometry" />
        </mxCell>
        <mxCell id="7C5Wq7yI61Qbkwt6JrYx-37" style="rounded=0;orthogonalLoop=1;jettySize=auto;html=1;exitX=1;exitY=0.5;exitDx=0;exitDy=0;entryX=0;entryY=0.5;entryDx=0;entryDy=0;strokeColor=default;endArrow=none;endFill=0;" edge="1" parent="1" source="7C5Wq7yI61Qbkwt6JrYx-7" target="7C5Wq7yI61Qbkwt6JrYx-34">
          <mxGeometry relative="1" as="geometry" />
        </mxCell>
        <mxCell id="7C5Wq7yI61Qbkwt6JrYx-7" value="게시판 보기" style="rounded=1;whiteSpace=wrap;html=1;arcSize=40;fontColor=#000000;fillColor=#ffffc0;strokeColor=#ff0000;" vertex="1" parent="1">
          <mxGeometry x="270" y="280" width="120" height="40" as="geometry" />
        </mxCell>
        <mxCell id="7C5Wq7yI61Qbkwt6JrYx-22" style="rounded=0;orthogonalLoop=1;jettySize=auto;html=1;exitX=0;exitY=0.5;exitDx=0;exitDy=0;endArrow=none;endFill=0;" edge="1" parent="1" source="7C5Wq7yI61Qbkwt6JrYx-9">
          <mxGeometry relative="1" as="geometry">
            <mxPoint x="180" y="370" as="targetPoint" />
          </mxGeometry>
        </mxCell>
        <mxCell id="7C5Wq7yI61Qbkwt6JrYx-26" style="rounded=0;orthogonalLoop=1;jettySize=auto;html=1;exitX=1;exitY=0.5;exitDx=0;exitDy=0;dashed=1;" edge="1" parent="1" source="7C5Wq7yI61Qbkwt6JrYx-9">
          <mxGeometry relative="1" as="geometry">
            <mxPoint x="520" y="130" as="targetPoint" />
          </mxGeometry>
        </mxCell>
        <mxCell id="7C5Wq7yI61Qbkwt6JrYx-38" style="rounded=0;orthogonalLoop=1;jettySize=auto;html=1;exitX=1;exitY=0.5;exitDx=0;exitDy=0;entryX=0;entryY=0.5;entryDx=0;entryDy=0;endArrow=none;endFill=0;" edge="1" parent="1" source="7C5Wq7yI61Qbkwt6JrYx-9" target="7C5Wq7yI61Qbkwt6JrYx-34">
          <mxGeometry relative="1" as="geometry" />
        </mxCell>
        <mxCell id="7C5Wq7yI61Qbkwt6JrYx-9" value="게시글 보기" style="rounded=1;whiteSpace=wrap;html=1;arcSize=40;fontColor=#000000;fillColor=#ffffc0;strokeColor=#ff0000;" vertex="1" parent="1">
          <mxGeometry x="270" y="450" width="120" height="40" as="geometry" />
        </mxCell>
        <mxCell id="7C5Wq7yI61Qbkwt6JrYx-20" style="rounded=0;orthogonalLoop=1;jettySize=auto;html=1;exitX=0;exitY=0.5;exitDx=0;exitDy=0;entryX=1;entryY=0.3333333333333333;entryDx=0;entryDy=0;entryPerimeter=0;endArrow=none;endFill=0;" edge="1" parent="1" source="7C5Wq7yI61Qbkwt6JrYx-10" target="7C5Wq7yI61Qbkwt6JrYx-1">
          <mxGeometry relative="1" as="geometry">
            <mxPoint x="180" y="360" as="targetPoint" />
          </mxGeometry>
        </mxCell>
        <mxCell id="7C5Wq7yI61Qbkwt6JrYx-10" value="회원 로그인" style="rounded=1;whiteSpace=wrap;html=1;arcSize=40;fontColor=#000000;fillColor=#ffffc0;strokeColor=#ff0000;" vertex="1" parent="1">
          <mxGeometry x="460" y="90" width="120" height="40" as="geometry" />
        </mxCell>
        <mxCell id="7C5Wq7yI61Qbkwt6JrYx-23" value="&amp;lt;&amp;lt;include&amp;gt;&amp;gt;" style="edgeStyle=orthogonalEdgeStyle;rounded=0;orthogonalLoop=1;jettySize=auto;html=1;exitX=0;exitY=0.5;exitDx=0;exitDy=0;entryX=1;entryY=0.5;entryDx=0;entryDy=0;endArrow=none;endFill=0;dashed=1;startArrow=classic;startFill=1;" edge="1" parent="1" source="7C5Wq7yI61Qbkwt6JrYx-12" target="7C5Wq7yI61Qbkwt6JrYx-10">
          <mxGeometry relative="1" as="geometry" />
        </mxCell>
        <mxCell id="7C5Wq7yI61Qbkwt6JrYx-36" style="rounded=0;orthogonalLoop=1;jettySize=auto;html=1;exitX=1;exitY=0.5;exitDx=0;exitDy=0;entryX=0;entryY=0.5;entryDx=0;entryDy=0;endArrow=none;endFill=0;" edge="1" parent="1" source="7C5Wq7yI61Qbkwt6JrYx-12" target="7C5Wq7yI61Qbkwt6JrYx-34">
          <mxGeometry relative="1" as="geometry" />
        </mxCell>
        <mxCell id="7C5Wq7yI61Qbkwt6JrYx-12" value="인증" style="rounded=1;whiteSpace=wrap;html=1;arcSize=40;fontColor=#000000;fillColor=#ffffc0;strokeColor=#ff0000;" vertex="1" parent="1">
          <mxGeometry x="700" y="90" width="120" height="40" as="geometry" />
        </mxCell>
        <mxCell id="7C5Wq7yI61Qbkwt6JrYx-24" value="&amp;lt;&amp;lt;extend&amp;gt;&amp;gt;" style="rounded=0;orthogonalLoop=1;jettySize=auto;html=1;exitX=0;exitY=0.5;exitDx=0;exitDy=0;endArrow=classic;endFill=1;dashed=1;startArrow=none;startFill=0;" edge="1" parent="1" source="7C5Wq7yI61Qbkwt6JrYx-13">
          <mxGeometry relative="1" as="geometry">
            <mxPoint x="580" y="110" as="targetPoint" />
          </mxGeometry>
        </mxCell>
        <mxCell id="7C5Wq7yI61Qbkwt6JrYx-13" value="로그인 실패" style="rounded=1;whiteSpace=wrap;html=1;arcSize=40;fontColor=#000000;fillColor=#ffffc0;strokeColor=#ff0000;" vertex="1" parent="1">
          <mxGeometry x="700" y="170" width="120" height="40" as="geometry" />
        </mxCell>
        <mxCell id="7C5Wq7yI61Qbkwt6JrYx-29" style="rounded=0;orthogonalLoop=1;jettySize=auto;html=1;exitX=0;exitY=0.5;exitDx=0;exitDy=0;entryX=1;entryY=0.5;entryDx=0;entryDy=0;dashed=1;" edge="1" parent="1" source="7C5Wq7yI61Qbkwt6JrYx-14" target="7C5Wq7yI61Qbkwt6JrYx-7">
          <mxGeometry relative="1" as="geometry" />
        </mxCell>
        <mxCell id="7C5Wq7yI61Qbkwt6JrYx-14" value="게시판 정렬" style="rounded=1;whiteSpace=wrap;html=1;arcSize=40;fontColor=#000000;fillColor=#ffffc0;strokeColor=#ff0000;" vertex="1" parent="1">
          <mxGeometry x="520" y="210" width="120" height="40" as="geometry" />
        </mxCell>
        <mxCell id="7C5Wq7yI61Qbkwt6JrYx-30" style="rounded=0;orthogonalLoop=1;jettySize=auto;html=1;exitX=0;exitY=0.5;exitDx=0;exitDy=0;dashed=1;" edge="1" parent="1" source="7C5Wq7yI61Qbkwt6JrYx-15">
          <mxGeometry relative="1" as="geometry">
            <mxPoint x="390" y="300" as="targetPoint" />
          </mxGeometry>
        </mxCell>
        <mxCell id="7C5Wq7yI61Qbkwt6JrYx-15" value="게시판 검색" style="rounded=1;whiteSpace=wrap;html=1;arcSize=40;fontColor=#000000;fillColor=#ffffc0;strokeColor=#ff0000;" vertex="1" parent="1">
          <mxGeometry x="520" y="300" width="120" height="40" as="geometry" />
        </mxCell>
        <mxCell id="7C5Wq7yI61Qbkwt6JrYx-31" style="rounded=0;orthogonalLoop=1;jettySize=auto;html=1;exitX=0;exitY=0.5;exitDx=0;exitDy=0;entryX=1;entryY=0.5;entryDx=0;entryDy=0;dashed=1;" edge="1" parent="1" source="7C5Wq7yI61Qbkwt6JrYx-16" target="7C5Wq7yI61Qbkwt6JrYx-9">
          <mxGeometry relative="1" as="geometry" />
        </mxCell>
        <mxCell id="7C5Wq7yI61Qbkwt6JrYx-39" style="rounded=0;orthogonalLoop=1;jettySize=auto;html=1;exitX=1;exitY=0.5;exitDx=0;exitDy=0;endArrow=none;endFill=0;entryX=0;entryY=0.5;entryDx=0;entryDy=0;" edge="1" parent="1" source="7C5Wq7yI61Qbkwt6JrYx-16" target="7C5Wq7yI61Qbkwt6JrYx-34">
          <mxGeometry relative="1" as="geometry">
            <mxPoint x="990" y="240" as="targetPoint" />
          </mxGeometry>
        </mxCell>
        <mxCell id="7C5Wq7yI61Qbkwt6JrYx-16" value="게시글 쓰기, 수정, 삭제" style="rounded=1;whiteSpace=wrap;html=1;arcSize=40;fontColor=#000000;fillColor=#ffffc0;strokeColor=#ff0000;" vertex="1" parent="1">
          <mxGeometry x="485" y="450" width="120" height="40" as="geometry" />
        </mxCell>
        <mxCell id="7C5Wq7yI61Qbkwt6JrYx-32" style="rounded=0;orthogonalLoop=1;jettySize=auto;html=1;exitX=0;exitY=0.5;exitDx=0;exitDy=0;entryX=1;entryY=0.5;entryDx=0;entryDy=0;dashed=1;" edge="1" parent="1" source="7C5Wq7yI61Qbkwt6JrYx-17" target="7C5Wq7yI61Qbkwt6JrYx-9">
          <mxGeometry relative="1" as="geometry" />
        </mxCell>
        <mxCell id="7C5Wq7yI61Qbkwt6JrYx-40" style="rounded=0;orthogonalLoop=1;jettySize=auto;html=1;exitX=1;exitY=0.5;exitDx=0;exitDy=0;entryX=0;entryY=0.5;entryDx=0;entryDy=0;endArrow=none;endFill=0;" edge="1" parent="1" source="7C5Wq7yI61Qbkwt6JrYx-17" target="7C5Wq7yI61Qbkwt6JrYx-34">
          <mxGeometry relative="1" as="geometry" />
        </mxCell>
        <mxCell id="7C5Wq7yI61Qbkwt6JrYx-17" value="댓글 보기, 쓰기, &lt;br&gt;수정, 삭제" style="rounded=1;whiteSpace=wrap;html=1;arcSize=40;fontColor=#000000;fillColor=#ffffc0;strokeColor=#ff0000;" vertex="1" parent="1">
          <mxGeometry x="485" y="520" width="120" height="40" as="geometry" />
        </mxCell>
        <mxCell id="7C5Wq7yI61Qbkwt6JrYx-19" style="rounded=0;orthogonalLoop=1;jettySize=auto;html=1;exitX=0;exitY=0.5;exitDx=0;exitDy=0;entryX=1;entryY=0.3333333333333333;entryDx=0;entryDy=0;entryPerimeter=0;endArrow=none;endFill=0;" edge="1" parent="1" source="7C5Wq7yI61Qbkwt6JrYx-5" target="7C5Wq7yI61Qbkwt6JrYx-1">
          <mxGeometry relative="1" as="geometry" />
        </mxCell>
        <mxCell id="7C5Wq7yI61Qbkwt6JrYx-21" style="rounded=0;orthogonalLoop=1;jettySize=auto;html=1;exitX=0;exitY=0.5;exitDx=0;exitDy=0;entryX=1;entryY=0.3333333333333333;entryDx=0;entryDy=0;entryPerimeter=0;endArrow=none;endFill=0;" edge="1" parent="1" source="7C5Wq7yI61Qbkwt6JrYx-7" target="7C5Wq7yI61Qbkwt6JrYx-1">
          <mxGeometry relative="1" as="geometry" />
        </mxCell>
        <mxCell id="7C5Wq7yI61Qbkwt6JrYx-34" value="DB" style="html=1;dropTarget=0;whiteSpace=wrap;" vertex="1" parent="1">
          <mxGeometry x="960" y="200" width="80" height="80" as="geometry" />
        </mxCell>
      </root>
    </mxGraphModel>
  </diagram>
</mxfile>
